<svg width="96" height="96" viewBox="0 0 96 96" fill="none" xmlns="http://www.w3.org/2000/svg">
<path d="M48 96C74.5097 96 96 74.5097 96 48C96 21.4903 74.5097 0 48 0C21.4903 0 0 21.4903 0 48C0 74.5097 21.4903 96 48 96Z" fill="url(#paint0_linear)"/>
<path fill-rule="evenodd" clip-rule="evenodd" d="M16.8226 53.2735C16.8151 53.4528 16.8076 53.6327 16.8076 53.8132C16.8076 54.4954 16.8674 55.1692 16.9874 55.8328H16.8076V56.8774C16.8076 57.3873 16.845 57.8924 16.905 58.3921C18.18 68.143 31.6125 75.8152 48 75.8152C64.3875 75.8152 77.82 68.143 79.095 58.3921C79.155 57.8924 79.1924 57.3873 79.1924 56.8774V55.8328H79.0126C79.1326 55.1692 79.1924 54.4954 79.1924 53.8132C79.1924 53.6327 79.1849 53.4528 79.1774 53.2735C78.7049 43.0639 64.9275 34.8752 48 34.8752C31.0725 34.8752 17.2951 43.0639 16.8226 53.2735ZM14.2573 53.2735C14.4898 47.0443 18.7274 41.8116 24.6149 38.2344C30.7274 34.5262 39 32.3159 48 32.3159C57 32.3159 65.2726 34.5262 71.3851 38.2344C77.2726 41.8116 81.5102 47.0443 81.7427 53.2735H81.75V56.8774C81.75 63.3442 77.4451 68.7762 71.3851 72.4562C65.2726 76.1647 57 78.375 48 78.375C39 78.375 30.7274 76.1647 24.6149 72.4562C18.5549 68.7762 14.25 63.3442 14.25 56.8774V53.2735H14.2573Z" fill="#606063"/>
<path d="M79.1924 56.8779C79.1924 67.337 65.2275 75.816 48 75.816C30.7725 75.816 16.8076 67.337 16.8076 56.8779V53.8799H79.1924V56.8779Z" fill="#BEBEBE"/>
<path d="M79.1924 53.8138C79.1924 64.2729 65.2275 72.7518 48 72.7518C30.7725 72.7518 16.8076 64.2729 16.8076 53.8138C16.8076 43.3546 30.7725 34.8757 48 34.8757C65.2275 34.8757 79.1924 43.3546 79.1924 53.8138Z" fill="#F5F3F3"/>
<path fill-rule="evenodd" clip-rule="evenodd" d="M21.6079 48.4637C21.6079 48.4756 21.6079 48.4874 21.6079 48.4993C21.6079 49.3605 21.7352 50.2038 21.9752 51.023H21.6079V52.1321C21.6079 52.6217 21.6455 53.1054 21.728 53.5823C22.913 60.7831 32.8655 66.4036 44.963 66.4036C57.0605 66.4036 67.0055 60.7831 68.198 53.5823C68.273 53.1054 68.3104 52.6217 68.3104 52.1321V51.023H67.9504C68.1829 50.2262 68.3104 49.4065 68.3104 48.5697C68.3179 48.5462 68.3177 48.5228 68.3177 48.4993C68.3177 48.4874 68.3177 48.4756 68.3177 48.4637C68.2803 40.5981 57.8405 34.2278 44.963 34.2278C32.0855 34.2278 21.6379 40.5981 21.6079 48.4637ZM19.0503 48.4637V52.1321C19.0503 57.302 22.4703 61.5681 27.1128 64.4074C31.8003 67.2735 38.123 68.9629 44.963 68.9629C51.803 68.9629 58.118 67.2735 62.8055 64.4074C67.4555 61.5681 70.8754 57.302 70.8754 52.1321V48.5792C70.8754 48.5526 70.8754 48.5259 70.8754 48.4993C70.8754 43.3294 67.4555 39.0633 62.8055 36.224C58.118 33.3578 51.803 31.6685 44.963 31.6685C38.123 31.6685 31.8003 33.3578 27.1128 36.224C22.4778 39.0568 19.0653 43.3098 19.0503 48.4637Z" fill="#612F01"/>
<path d="M68.3104 52.1321C68.3104 60.0141 57.8555 66.4037 44.963 66.4037C32.063 66.4037 21.6079 60.0141 21.6079 52.1321V48.7837H68.3104V52.1321Z" fill="#FEDC90"/>
<path d="M68.3104 48.4991C68.3104 56.381 57.8555 62.7706 44.963 62.7706C32.063 62.7706 21.6079 56.381 21.6079 48.4991C21.6079 40.6172 32.063 34.2275 44.963 34.2275C57.8555 34.2275 68.3104 40.6172 68.3104 48.4991Z" fill="#D1884F"/>
<path fill-rule="evenodd" clip-rule="evenodd" d="M28.6421 40.7858C28.6421 40.7976 28.6421 40.8095 28.6421 40.8213C28.6421 41.6825 28.7698 42.5258 29.0098 43.3451H28.6421V44.4541C28.6421 44.9437 28.6872 45.4274 28.7622 45.9044C29.9547 53.1051 39.8997 58.7256 51.9972 58.7256C64.0947 58.7256 74.0397 53.1051 75.2322 45.9044C75.3147 45.4274 75.3523 44.9437 75.3523 44.4541V43.3451H74.9846C75.2171 42.5482 75.3448 41.7285 75.3523 40.8917C75.3523 40.8683 75.3523 40.8448 75.3523 40.8213C75.3523 40.8095 75.3523 40.7976 75.3523 40.7858C75.3223 32.9201 64.8747 26.5498 51.9972 26.5498C39.1197 26.5498 28.6796 32.9201 28.6421 40.7858ZM26.0845 40.7858V44.4541C26.0845 49.6241 29.5045 53.8901 34.147 56.7294C38.842 59.5955 45.1572 61.2849 51.9972 61.2849C58.8372 61.2849 65.1595 59.5955 69.847 56.7294C74.4895 53.8901 77.9095 49.6241 77.9095 44.4541V40.9012C77.9095 40.8746 77.9095 40.8479 77.9095 40.8213C77.9095 35.6514 74.4895 31.3853 69.847 28.546C65.1595 25.6799 58.8372 23.9905 51.9972 23.9905C45.1572 23.9905 38.8422 25.6799 34.1547 28.546C29.5122 31.3788 26.0995 35.6318 26.0845 40.7858Z" fill="#612F01"/>
<path d="M75.3523 44.4542C75.3523 52.3361 64.8972 58.7257 51.9972 58.7257C39.0972 58.7257 28.6421 52.3361 28.6421 44.4542V41.1057H75.3523V44.4542Z" fill="#FEDC90"/>
<path d="M75.3523 40.8211C75.3523 48.7031 64.8972 55.0926 51.9972 55.0926C39.0972 55.0926 28.6421 48.7031 28.6421 40.8211C28.6421 32.9392 39.0972 26.5496 51.9972 26.5496C64.8972 26.5496 75.3523 32.9392 75.3523 40.8211Z" fill="#D1884F"/>
<path fill-rule="evenodd" clip-rule="evenodd" d="M21.6079 33.1078C21.6079 33.1196 21.6079 33.1315 21.6079 33.1433C21.6079 34.0045 21.7352 34.8479 21.9752 35.6671H21.6079V36.7761C21.6079 37.2657 21.6455 37.7495 21.728 38.2264C22.913 45.4271 32.8655 51.0476 44.963 51.0476C57.0605 51.0476 67.0055 45.4271 68.198 38.2264C68.273 37.7495 68.3104 37.2657 68.3104 36.7761V35.6671H67.9504C68.1829 34.8702 68.3104 34.0505 68.3104 33.2138C68.3179 33.1903 68.3177 33.1668 68.3177 33.1433C68.3177 33.1315 68.3177 33.1196 68.3177 33.1078C68.2803 25.2422 57.8405 18.8718 44.963 18.8718C32.0855 18.8718 21.6379 25.2422 21.6079 33.1078ZM19.0503 33.1078V36.7761C19.0503 41.9461 22.4703 46.2122 27.1128 49.0514C31.8003 51.9176 38.123 53.6069 44.963 53.6069C51.803 53.6069 58.118 51.9176 62.8055 49.0514C67.4555 46.2122 70.8754 41.9461 70.8754 36.7761V33.2232C70.8754 33.1966 70.8754 33.17 70.8754 33.1433C70.8754 27.9734 67.4555 23.7074 62.8055 20.868C58.118 18.0019 51.803 16.3125 44.963 16.3125C38.123 16.3125 31.8003 18.0019 27.1128 20.868C22.4778 23.7008 19.0653 27.9539 19.0503 33.1078Z" fill="#612F01"/>
<path d="M68.3104 36.7762C68.3104 44.6582 57.8555 51.0477 44.963 51.0477C32.063 51.0477 21.6079 44.6582 21.6079 36.7762V33.4277H68.3104V36.7762Z" fill="#FEDC90"/>
<path d="M68.3104 33.1431C68.3104 41.0251 57.8555 47.4146 44.963 47.4146C32.063 47.4146 21.6079 41.0251 21.6079 33.1431C21.6079 25.2612 32.063 18.8716 44.963 18.8716C57.8555 18.8716 68.3104 25.2612 68.3104 33.1431Z" fill="#D1884F"/>
<path fill-rule="evenodd" clip-rule="evenodd" d="M27.1348 34.0314C27.1348 36.6628 29.0471 39.0197 32.0621 40.6054L29.9696 44.2255V44.2258V53.3877C29.9696 54.5992 30.9522 55.5813 32.1672 55.5813C33.3747 55.5813 34.3572 54.5992 34.3572 53.3877V46.1013L36.6072 42.2066C38.0472 42.5115 39.5848 42.6771 41.1973 42.6771C48.9598 42.6771 55.2521 38.8062 55.2521 34.0314C55.2521 29.2565 48.9598 25.3857 41.1973 25.3857C33.4273 25.3857 27.1348 29.2565 27.1348 34.0314Z" fill="url(#paint1_linear)"/>
<path fill-rule="evenodd" clip-rule="evenodd" d="M32.0621 40.6051C31.7246 40.4294 31.4023 40.2443 31.1023 40.0505C28.6423 38.4939 27.1348 36.371 27.1348 34.031C27.1348 29.2562 33.4273 25.3854 41.1973 25.3854C48.9598 25.3854 55.2521 29.2562 55.2521 34.031C55.2521 38.806 48.9598 42.6767 41.1973 42.6767C39.5848 42.6767 38.0472 42.5111 36.6072 42.2063L34.3572 46.101V53.3873C34.3572 54.5989 33.3747 55.581 32.1672 55.581C30.9522 55.581 29.9696 54.5989 29.9696 53.3873V44.2255L32.0621 40.6051ZM27.7273 44.264V53.3873C27.7273 55.8356 29.7147 57.8204 32.1672 57.8204C34.6122 57.8204 36.5995 55.8356 36.5995 53.3873V46.7011L37.7622 44.681C38.8722 44.8353 40.0198 44.9162 41.1973 44.9162C45.4198 44.9162 49.3571 43.8668 52.3121 42.0521C55.2221 40.26 57.4948 37.4872 57.4948 34.031C57.4948 30.575 55.2221 27.8021 52.3121 26.01C49.3571 24.1954 45.4198 23.146 41.1973 23.146C36.9673 23.146 33.0297 24.1954 30.0747 26.01C27.1647 27.8021 24.8921 30.575 24.8921 34.031C24.8921 37.0643 26.6323 39.5621 29.0398 41.3519L28.0496 43.0787C27.9521 43.2379 27.8772 43.4098 27.8247 43.5913C27.7572 43.8126 27.7273 44.0394 27.7273 44.264Z" fill="#633001"/>
<path d="M31.522 30.3889C31.522 32.8624 34.6721 34.8676 38.5646 34.8676C42.4496 34.8676 45.5995 32.8624 45.5995 30.3889C45.5995 27.9154 42.4496 25.9102 38.5646 25.9102C34.6721 25.9102 31.522 27.9154 31.522 30.3889Z" fill="#9E7200"/>
<path d="M31.522 28.4692H45.5995V30.3887H31.522V28.4692Z" fill="#9E7200"/>
<path d="M31.522 28.4693C31.522 30.9428 34.6721 32.948 38.5646 32.948C42.4496 32.948 45.5995 30.9428 45.5995 28.4693C45.5995 25.9957 42.4496 23.9905 38.5646 23.9905C34.6721 23.9905 31.522 25.9957 31.522 28.4693Z" fill="#F0B90B"/>
<path d="M35.8953 27.9293L37.8754 26.6669C38.2954 26.4001 38.828 26.4001 39.248 26.6669L41.2354 27.9293C41.6254 28.1807 41.6254 28.7574 41.2354 29.0089L39.248 30.2713C38.828 30.538 38.2954 30.538 37.8754 30.2713L35.8953 29.0089C35.4978 28.7574 35.4978 28.1807 35.8953 27.9293Z" fill="#9E7200"/>
<path fill-rule="evenodd" clip-rule="evenodd" d="M32.3851 23.4126C34.0651 22.3405 36.2624 21.7507 38.5649 21.7507C40.8674 21.7507 43.0576 22.3405 44.7451 23.4126C46.4026 24.4678 47.8425 26.2009 47.8425 28.4689V30.3883C47.8425 32.6563 46.4026 34.3894 44.7451 35.4446C43.0576 36.5167 40.8674 37.1065 38.5649 37.1065C36.2624 37.1065 34.0651 36.5167 32.3851 35.4446C30.7276 34.3894 29.2874 32.6563 29.2874 30.3883V28.4689C29.2874 26.2009 30.7276 24.4678 32.3851 23.4126ZM38.5649 23.9901C34.6724 23.9901 31.5223 25.9953 31.5223 28.4689V30.3883C31.5223 32.8619 34.6724 34.8671 38.5649 34.8671C42.4499 34.8671 45.5999 32.8619 45.5999 30.3883V28.4689C45.5999 25.9953 42.4499 23.9901 38.5649 23.9901Z" fill="#633001"/>
<defs>
<linearGradient id="paint0_linear" x1="48" y1="0" x2="48" y2="96" gradientUnits="userSpaceOnUse">
<stop stop-color="#54DADE"/>
<stop offset="0.762157" stop-color="#24C7D6"/>
</linearGradient>
<linearGradient id="paint1_linear" x1="41.3472" y1="25.6751" x2="41.3472" y2="55.3545" gradientUnits="userSpaceOnUse">
<stop stop-color="#9F4A08"/>
<stop offset="0.370494" stop-color="#7D3900"/>
<stop offset="1" stop-color="#8D4104"/>
</linearGradient>
</defs>
</svg>
