<svg xmlns="http://www.w3.org/2000/svg" viewBox="0 0 96 96" fill="none" class="css-1w9rcby"><circle cx="48" cy="48" r="40" fill="#E6E8EA"></circle><path d="M82 80.5l4.5 4.5 4.5-4.5-4.5-4.5-4.5 4.5zM5 22l3 3 3-3-3-3-3 3zM85 11h3V8h-3v3z" fill="#E6E8EA"></path><path d="M16 48c0 17.673 14.327 32 32 32 17.673 0 32-14.327 32-32 0-17.673-14.327-32-32-32-17.673 0-32 14.327-32 32z" fill="url(#exposure-light_svg__paint0_linear)"></path><path d="M48 16c-17.673 0-32 14.327-32 32 0 17.673 14.327 32 32 32V16z" fill="#76808F"></path><path d="M77.704 59.926A31.913 31.913 0 0080 48c0-1.632-.122-3.236-.358-4.802L76.444 40h-5.333l-4.444 4.444v5.334l2.666 2.666h5.334v4.445l3.037 3.037z" fill="url(#exposure-light_svg__paint1_linear)"></path><path d="M25.478 70.733l4.744-4.066V63.11h-2.666v-2.666l-2.667-2.667v4.444l-2.667-2.666V56h-2.666l-1.972 1.971a32.002 32.002 0 007.894 12.762z" fill="url(#exposure-light_svg__paint2_linear)"></path><path d="M74.611 30.222a31.935 31.935 0 012.487 4.445h-3.32v2.666h-3.556v-2.666L72.89 32l-1.778-1.778h3.5z" fill="url(#exposure-light_svg__paint3_linear)"></path><path d="M70.133 24.889c.65.622 1.272 1.27 1.867 1.944v.723h-6.222l2.666-2.667h1.69z" fill="url(#exposure-light_svg__paint4_linear)"></path><path d="M57.404 17.404a31.888 31.888 0 019.388 4.692l-5.459 5.46v-6.223l-3.929-3.929z" fill="url(#exposure-light_svg__paint5_linear)"></path><path d="M22.669 28.445A32.192 32.192 0 0126.833 24h8.723v-3.555H40L43.556 24H48v-2.667h2.667l1.777 1.778-2.666 2.667h7.11v2.667l-2.666 2.666h-4.444l-5.334 6.222v4.445l-2.666-2.667h-3.556v5.334h3.556v7.11l-4.445-4.444h-3.555v-5.333L31.11 39.11h-3.555V32.89L32 28.444h-9.331z" fill="url(#exposure-light_svg__paint6_linear)"></path><path d="M18.667 35.19c.208-.476.428-.947.66-1.412h2.895v3.555l-3.555 3.556V35.19z" fill="url(#exposure-light_svg__paint7_linear)"></path><path d="M16 48h3.556v-3.556h-3.36A32.339 32.339 0 0016 48z" fill="url(#exposure-light_svg__paint8_linear)"></path><path d="M45.333 48l-3.555 3.556v3.555L48 61.333V72l5.333 5.333V72l4.445-4.444V64l3.555-3.556v-5.333H56.89v-3.555h-3.556L49.778 48h-4.445z" fill="url(#exposure-light_svg__paint9_linear)"></path><path d="M45.333 44.444L48 41.779h2.667v2.666h-5.334z" fill="url(#exposure-light_svg__paint10_linear)"></path><path d="M34.667 67.556L30.222 72h4.445v-4.444z" fill="url(#exposure-light_svg__paint11_linear)"></path><path d="M22.222 50.667L27.556 56v-5.333h-5.334z" fill="url(#exposure-light_svg__paint12_linear)"></path><path d="M56.889 24l-4.445-4.444h4.445V24z" fill="url(#exposure-light_svg__paint13_linear)"></path><path d="M45.333 21.333v-3.555h-3.555l3.555 3.555z" fill="url(#exposure-light_svg__paint14_linear)"></path><path d="M48 24h-4.444L40 20.445h-4.444V24h-8.723a32.192 32.192 0 00-4.164 4.445H32l-4.444 4.444v6.222h3.555l2.667 2.667v5.333h3.555l4.445 4.445v3.555L48 61.333V48h-2.667l-3.555 3.556v-7.111h-3.556V39.11h3.556l2.666 2.667v-4.445L48 33.185V24z" fill="#F0B90B"></path><path d="M48 41.778l-2.667 2.666H48v-2.666zM30.222 66.667l-4.744 4.066a32.002 32.002 0 01-7.894-12.762l1.972-1.97h2.666v3.555l2.667 2.666v-4.444l2.667 2.666v2.667h2.666v3.556zM18.667 35.19c.208-.476.428-.947.66-1.412h2.895v3.555l-3.555 3.556V35.19zM19.556 48H16c0-1.202.066-2.388.195-3.556h3.36V48zM34.667 67.556L30.222 72h4.445v-4.444zM27.556 56l-5.334-5.333h5.334V56zM45.333 17.778v3.555l-3.555-3.555h3.555z" fill="#F0B90B"></path><defs><linearGradient id="exposure-light_svg__paint0_linear" x1="48" y1="16" x2="48" y2="80" gradientUnits="userSpaceOnUse"><stop stop-color="#929AA5"></stop><stop offset="1" stop-color="#76808F"></stop></linearGradient><linearGradient id="exposure-light_svg__paint1_linear" x1="48" y1="77.333" x2="48" y2="17.404" gradientUnits="userSpaceOnUse"><stop stop-color="#F0B90B"></stop><stop offset="1" stop-color="#F8D33A"></stop></linearGradient><linearGradient id="exposure-light_svg__paint2_linear" x1="48" y1="77.333" x2="48" y2="17.404" gradientUnits="userSpaceOnUse"><stop stop-color="#F0B90B"></stop><stop offset="1" stop-color="#F8D33A"></stop></linearGradient><linearGradient id="exposure-light_svg__paint3_linear" x1="48" y1="77.333" x2="48" y2="17.404" gradientUnits="userSpaceOnUse"><stop stop-color="#F0B90B"></stop><stop offset="1" stop-color="#F8D33A"></stop></linearGradient><linearGradient id="exposure-light_svg__paint4_linear" x1="48" y1="77.333" x2="48" y2="17.404" gradientUnits="userSpaceOnUse"><stop stop-color="#F0B90B"></stop><stop offset="1" stop-color="#F8D33A"></stop></linearGradient><linearGradient id="exposure-light_svg__paint5_linear" x1="48" y1="77.333" x2="48" y2="17.404" gradientUnits="userSpaceOnUse"><stop stop-color="#F0B90B"></stop><stop offset="1" stop-color="#F8D33A"></stop></linearGradient><linearGradient id="exposure-light_svg__paint6_linear" x1="48" y1="77.333" x2="48" y2="17.404" gradientUnits="userSpaceOnUse"><stop stop-color="#F0B90B"></stop><stop offset="1" stop-color="#F8D33A"></stop></linearGradient><linearGradient id="exposure-light_svg__paint7_linear" x1="48" y1="77.333" x2="48" y2="17.404" gradientUnits="userSpaceOnUse"><stop stop-color="#F0B90B"></stop><stop offset="1" stop-color="#F8D33A"></stop></linearGradient><linearGradient id="exposure-light_svg__paint8_linear" x1="48" y1="77.333" x2="48" y2="17.404" gradientUnits="userSpaceOnUse"><stop stop-color="#F0B90B"></stop><stop offset="1" stop-color="#F8D33A"></stop></linearGradient><linearGradient id="exposure-light_svg__paint9_linear" x1="48" y1="77.333" x2="48" y2="17.404" gradientUnits="userSpaceOnUse"><stop stop-color="#F0B90B"></stop><stop offset="1" stop-color="#F8D33A"></stop></linearGradient><linearGradient id="exposure-light_svg__paint10_linear" x1="48" y1="77.333" x2="48" y2="17.404" gradientUnits="userSpaceOnUse"><stop stop-color="#F0B90B"></stop><stop offset="1" stop-color="#F8D33A"></stop></linearGradient><linearGradient id="exposure-light_svg__paint11_linear" x1="48" y1="77.333" x2="48" y2="17.404" gradientUnits="userSpaceOnUse"><stop stop-color="#F0B90B"></stop><stop offset="1" stop-color="#F8D33A"></stop></linearGradient><linearGradient id="exposure-light_svg__paint12_linear" x1="48" y1="77.333" x2="48" y2="17.404" gradientUnits="userSpaceOnUse"><stop stop-color="#F0B90B"></stop><stop offset="1" stop-color="#F8D33A"></stop></linearGradient><linearGradient id="exposure-light_svg__paint13_linear" x1="48" y1="77.333" x2="48" y2="17.404" gradientUnits="userSpaceOnUse"><stop stop-color="#F0B90B"></stop><stop offset="1" stop-color="#F8D33A"></stop></linearGradient><linearGradient id="exposure-light_svg__paint14_linear" x1="48" y1="77.333" x2="48" y2="17.404" gradientUnits="userSpaceOnUse"><stop stop-color="#F0B90B"></stop><stop offset="1" stop-color="#F8D33A"></stop></linearGradient></defs></svg>