<svg xmlns="http://www.w3.org/2000/svg" viewBox="0 0 96 96" fill="none" class="css-1w9rcby"><path d="M20 80h56V60.5C76 54.149 70.777 49 64.333 49h-6.222L48 58.967 37.889 49h-6.222C25.223 49 20 54.149 20 60.5V80z" fill="url(#team-light_svg__paint0_linear)"></path><path d="M3 77h15V52h-5.217C7.38 52 3 56.477 3 62v15z" fill="url(#team-light_svg__paint1_linear)"></path><path d="M3 80h15V52h-5.217C7.38 52 3 56.477 3 62v18z" fill="#E6E8EA"></path><path d="M3 80h15V52h-5.217C7.38 52 3 56.477 3 62v18z" fill="url(#team-light_svg__paint2_linear)"></path><path d="M93 80H78V52h5.217C88.62 52 93 56.477 93 62v18z" fill="url(#team-light_svg__paint3_linear)"></path><path d="M38.1 38.9c-5.467-5.468-5.467-14.332 0-19.8 5.468-5.467 14.332-5.467 19.8 0 5.467 5.468 5.467 14.332 0 19.8-5.468 5.467-14.332 5.467-19.8 0z" fill="url(#team-light_svg__paint4_linear)"></path><path d="M86 21.5l3.5 3.5 3.5-3.5-3.5-3.5-3.5 3.5zM25 8l3 3 3-3-3-3-3 3zM2 44l2 2 2-2-2-2-2 2zM14.636 43.364a9 9 0 1112.728-12.728 9 9 0 01-12.728 12.728z" fill="#E6E8EA"></path><path d="M14.636 43.364a9 9 0 1112.728-12.728 9 9 0 01-12.728 12.728zM68.636 43.364a9 9 0 1112.728-12.728 9 9 0 01-12.728 12.728z" fill="#E6E8EA"></path><path d="M48 59L38 49v31h20V49L48 59z" fill="url(#team-light_svg__paint5_linear)"></path><defs><linearGradient id="team-light_svg__paint0_linear" x1="48" y1="49" x2="48" y2="80" gradientUnits="userSpaceOnUse"><stop stop-color="#929AA5"></stop><stop offset="1" stop-color="#76808F"></stop></linearGradient><linearGradient id="team-light_svg__paint1_linear" x1="18" y1="76.969" x2="3.191" y2="76.969" gradientUnits="userSpaceOnUse"><stop stop-color="#474D57"></stop><stop offset="1" stop-color="#0B0E11"></stop></linearGradient><linearGradient id="team-light_svg__paint2_linear" x1="10.5" y1="52" x2="10.5" y2="80" gradientUnits="userSpaceOnUse"><stop stop-color="#929AA5"></stop><stop offset="1" stop-color="#76808F"></stop></linearGradient><linearGradient id="team-light_svg__paint3_linear" x1="85.5" y1="52" x2="85.5" y2="80" gradientUnits="userSpaceOnUse"><stop stop-color="#929AA5"></stop><stop offset="1" stop-color="#76808F"></stop></linearGradient><linearGradient id="team-light_svg__paint4_linear" x1="48" y1="43" x2="48" y2="15" gradientUnits="userSpaceOnUse"><stop offset="0.333" stop-color="#F0B90B"></stop><stop offset="1" stop-color="#FBDA3C"></stop></linearGradient><linearGradient id="team-light_svg__paint5_linear" x1="48" y1="80" x2="48" y2="49" gradientUnits="userSpaceOnUse"><stop offset="0.333" stop-color="#F0B90B"></stop><stop offset="1" stop-color="#FBDA3C"></stop></linearGradient></defs></svg>